<?xml version="1.0" standalone="no"?>
<!DOCTYPE svg PUBLIC "-//W3C//DTD SVG 20010904//EN"
 "http://www.w3.org/TR/2001/REC-SVG-20010904/DTD/svg10.dtd">
<svg version="1.0" xmlns="http://www.w3.org/2000/svg"
 width="16.000000pt" height="16.000000pt" viewBox="0 0 16.000000 16.000000"
 preserveAspectRatio="xMidYMid meet">
<metadata>
Created by potrace 1.11, written by Peter Selinger 2001-2013
</metadata>
<g transform="translate(0.000000,16.000000) scale(0.014953,-0.014953)"
fill="#000000" stroke="none">
<path d="M436 972 c-3 -5 8 -15 25 -22 36 -15 62 -51 53 -74 -3 -9 -9 -17 -13
-17 -3 -1 -21 -3 -39 -5 -54 -6 -102 -33 -102 -58 0 -16 -12 -26 -46 -40 -80
-33 -105 -103 -59 -166 22 -30 39 -75 50 -132 2 -10 8 -25 13 -34 11 -20 -35
-118 -70 -151 -33 -30 -88 -34 -123 -7 -20 15 -20 15 -1 30 28 20 14 27 -38
20 -57 -9 -90 -46 -82 -91 7 -39 66 -91 114 -101 20 -4 44 -9 52 -11 84 -19
212 5 279 51 54 38 102 38 164 2 125 -73 266 -94 366 -53 99 40 116 103 40
147 -40 22 -64 21 -41 -2 42 -42 -46 -54 -116 -15 -53 28 -125 122 -112 146 5
9 23 46 41 83 17 38 35 68 39 68 4 0 15 11 23 24 39 59 27 138 -26 174 -18 12
-39 22 -45 22 -7 0 -11 3 -11 8 7 45 -21 78 -76 88 -15 3 -43 21 -63 40 -62
60 -178 105 -196 76z"/>
</g>
</svg>
